<?xml version="1.0" encoding="utf-8"?>
<!-- Generator: Adobe Illustrator 27.0.0, SVG Export Plug-In . SVG Version: 6.00 Build 0)  -->
<svg version="1.1" id="Layer_1" xmlns="http://www.w3.org/2000/svg" xmlns:xlink="http://www.w3.org/1999/xlink" x="0px" y="0px"
	 viewBox="0 0 512 512" style="enable-background:new 0 0 512 512;" xml:space="preserve">
<style type="text/css">
	.st0{fill:#FFFFFF;}
</style>
<g id="XMLID_1_">
	<path id="XMLID_2_" d="M9.91,46.65h492.08c5.47,0,9.96,4.49,9.96,9.96v398.77c0,5.47-4.49,9.96-9.96,9.96H9.91
		c-5.47,0-9.96-4.49-9.96-9.96V56.62C-0.05,51.14,4.44,46.65,9.91,46.65z"/>
	<path id="XMLID_3_" class="st0" d="M56.5,90.15c-1.68-1.68-3.79-2.53-6.17-2.53c-2.39,0-4.49,0.84-6.17,2.53
		c-1.68,1.68-2.53,3.79-2.53,6.17s0.84,4.49,2.53,6.17l26.94,26.94l-27.08,26.94c-1.68,1.68-2.53,3.79-2.67,6.17
		c0,2.39,0.84,4.49,2.53,6.17c1.68,1.68,3.79,2.53,6.17,2.53c2.39,0,4.49-0.84,6.31-2.53l29.89-29.89c6.31-6.31,6.31-12.49,0-18.8
		L56.5,90.15z M173.52,156.38c-1.68-1.68-3.79-2.53-6.31-2.53l0,0h-57.67l0,0c-2.39,0-4.49,0.84-6.31,2.53
		c-1.68,1.68-2.53,3.79-2.53,6.31c0,2.53,0.84,4.49,2.53,6.31c1.68,1.68,3.79,2.53,6.31,2.53l0,0h57.67l0,0
		c2.39,0,4.49-0.84,6.31-2.53c1.68-1.68,2.53-3.79,2.53-6.31C176.04,160.17,175.34,158.06,173.52,156.38z"/>
</g>
</svg>
